<svg xmlns="http://www.w3.org/2000/svg" viewBox="0 0 64 64" fill="none"><rect width="64" height="64" rx="15" fill="#12101c"/><g transform="translate(6 6) scale(.8125)" stroke="#c7a3ff" stroke-linejoin="round"><path d="M8 8 25 19 32 16 39 19 56 8 51 38 32 56 13 38Z" fill="#c7a3ff" fill-opacity=".12" stroke-width="3"/><path d="M8 8 20 31 32 43 44 31 56 8M13 38 25 37 32 43 39 37 51 38M25 19 20 31M39 19 44 31" stroke-width="2.5"/><path d="m20 31 6 2m18-2-6 2" stroke-width="3.5" stroke-linecap="round"/><path d="m28 43 4 5 4-5Z" fill="#c7a3ff"/><circle cx="32" cy="16" r="2" fill="#c7a3ff"/></g></svg>
